<svg xmlns="http://www.w3.org/2000/svg" width="1200" height="580" viewBox="0 0 1200 580" role="img" aria-labelledby="title desc">
<title id="title">Octopus5W - blueprint systems banner</title>
<desc id="desc">Blueprint style programming SVG banner for Octopus5W, showing system programming, web tools, and project folders.</desc>
<defs><pattern id="grid" width="32" height="32" patternUnits="userSpaceOnUse"><path d="M 32 0 L 0 0 0 32" fill="none" stroke="#1e3a8a" stroke-width="1" opacity=".35"/></pattern><linearGradient id="accent" x1="0" y1="0" x2="1" y2="0"><stop offset="0" stop-color="#38bdf8"/><stop offset="1" stop-color="#a855f7"/></linearGradient><style>.mono{font-family:ui-monospace,SFMono-Regular,Menlo,Monaco,Consolas,"Liberation Mono",monospace} .sans{font-family:-apple-system,BlinkMacSystemFont,"Segoe UI",Helvetica,Arial,sans-serif}</style></defs>
<rect width="1200" height="580" fill="#07111f" rx="28"/><rect width="1200" height="580" fill="url(#grid)" rx="28"/>
<g fill="none" stroke="#38bdf8" stroke-opacity=".25"><path d="M42 108h264v60h102v92h164"/><path d="M92 432h256v-64h190"/><path d="M660 78v420"/><circle cx="306" cy="108" r="5" fill="#38bdf8"/><circle cx="408" cy="260" r="5" fill="#38bdf8"/><circle cx="660" cy="78" r="5" fill="#38bdf8"/></g>
<text class="mono" x="72" y="84" fill="#38bdf8" font-size="20">blueprint://profile/Octopus5W</text><text class="sans" x="72" y="150" fill="#f8fafc" font-size="56" font-weight="850">Octopus5W</text><rect x="72" y="172" width="520" height="3" fill="url(#accent)"/>
<g class="sans" font-size="24" fill="#e0f2fe"><text x="72" y="230">01 / Étudiant à 42</text><text x="72" y="274">02 / Passionné par la programmation</text><text x="72" y="318">03 / Toujours en train d’apprendre</text><text x="72" y="354">     et de construire de nouveaux projets</text></g>
<g class="mono"><rect x="72" y="388" width="540" height="64" rx="18" fill="#0f172a" stroke="#334155"/><text x="96" y="426" fill="#22c55e" font-size="19">$ focus --system --web --learning</text></g>
<g class="mono"><g class="badge">
  <rect x="96" y="468" width="60" height="34" rx="12" fill="#0f172a" stroke="#38bdf8" stroke-width="1.4"/>
  <text x="126.0" y="490" text-anchor="middle" fill="#e6f6ff" font-size="15" font-weight="700">Make</text>
</g><g class="badge">
  <rect x="166" y="468" width="51" height="34" rx="12" fill="#0f172a" stroke="#22c55e" stroke-width="1.4"/>
  <text x="191.5" y="490" text-anchor="middle" fill="#e6f6ff" font-size="15" font-weight="700">GDB</text>
</g><g class="badge">
  <rect x="227" y="468" width="78" height="34" rx="12" fill="#0f172a" stroke="#a855f7" stroke-width="1.4"/>
  <text x="266.0" y="490" text-anchor="middle" fill="#e6f6ff" font-size="15" font-weight="700">GitHub</text>
</g><g class="badge">
  <rect x="315" y="468" width="78" height="34" rx="12" fill="#0f172a" stroke="#eab308" stroke-width="1.4"/>
  <text x="354.0" y="490" text-anchor="middle" fill="#e6f6ff" font-size="15" font-weight="700">NeoVim</text>
</g><g class="badge">
  <rect x="403" y="468" width="87" height="34" rx="12" fill="#0f172a" stroke="#38bdf8" stroke-width="1.4"/>
  <text x="446.5" y="490" text-anchor="middle" fill="#e6f6ff" font-size="15" font-weight="700">VS Code</text>
</g><g class="badge">
  <rect x="500" y="468" width="60" height="34" rx="12" fill="#0f172a" stroke="#22c55e" stroke-width="1.4"/>
  <text x="530.0" y="490" text-anchor="middle" fill="#e6f6ff" font-size="15" font-weight="700">Nest</text>
</g><g class="badge">
  <rect x="96" y="508" width="78" height="34" rx="12" fill="#0f172a" stroke="#a855f7" stroke-width="1.4"/>
  <text x="135.0" y="530" text-anchor="middle" fill="#e6f6ff" font-size="15" font-weight="700">Python</text>
</g></g>
<g><path d="M840 120 L960 120" stroke="#38bdf8" stroke-opacity=".22" stroke-width="2"/><path d="M960 120 L1080 120" stroke="#38bdf8" stroke-opacity=".22" stroke-width="2"/><path d="M1080 120 L790 230" stroke="#38bdf8" stroke-opacity=".22" stroke-width="2"/><path d="M790 230 L910 230" stroke="#38bdf8" stroke-opacity=".22" stroke-width="2"/><path d="M910 230 L1030 230" stroke="#38bdf8" stroke-opacity=".22" stroke-width="2"/><path d="M1030 230 L800 350" stroke="#38bdf8" stroke-opacity=".22" stroke-width="2"/><path d="M800 350 L920 350" stroke="#38bdf8" stroke-opacity=".22" stroke-width="2"/><path d="M920 350 L1080 350" stroke="#38bdf8" stroke-opacity=".22" stroke-width="2"/><path d="M1080 350 L1000 450" stroke="#38bdf8" stroke-opacity=".22" stroke-width="2"/><g><circle cx="840" cy="120" r="42" fill="#0f172a" stroke="#38bdf8" stroke-width="2"/><circle cx="840" cy="120" r="34" fill="none" stroke="#a855f7" stroke-opacity=".55" stroke-dasharray="4 8"/><text class="mono" x="840" y="127" text-anchor="middle" fill="#e0f2fe" font-size="19" font-weight="800">C</text></g><g><circle cx="960" cy="120" r="42" fill="#0f172a" stroke="#38bdf8" stroke-width="2"/><circle cx="960" cy="120" r="34" fill="none" stroke="#a855f7" stroke-opacity=".55" stroke-dasharray="4 8"/><text class="mono" x="960" y="127" text-anchor="middle" fill="#e0f2fe" font-size="19" font-weight="800">C++</text></g><g><circle cx="1080" cy="120" r="50" fill="#0f172a" stroke="#38bdf8" stroke-width="2"/><circle cx="1080" cy="120" r="42" fill="none" stroke="#a855f7" stroke-opacity=".55" stroke-dasharray="4 8"/><text class="mono" x="1080" y="127" text-anchor="middle" fill="#e0f2fe" font-size="19" font-weight="800">Linux</text></g><g><circle cx="790" cy="230" r="42" fill="#0f172a" stroke="#38bdf8" stroke-width="2"/><circle cx="790" cy="230" r="34" fill="none" stroke="#a855f7" stroke-opacity=".55" stroke-dasharray="4 8"/><text class="mono" x="790" y="237" text-anchor="middle" fill="#e0f2fe" font-size="19" font-weight="800">TS</text></g><g><circle cx="910" cy="230" r="42" fill="#0f172a" stroke="#38bdf8" stroke-width="2"/><circle cx="910" cy="230" r="34" fill="none" stroke="#a855f7" stroke-opacity=".55" stroke-dasharray="4 8"/><text class="mono" x="910" y="237" text-anchor="middle" fill="#e0f2fe" font-size="19" font-weight="800">Git</text></g><g><circle cx="1030" cy="230" r="50" fill="#0f172a" stroke="#38bdf8" stroke-width="2"/><circle cx="1030" cy="230" r="42" fill="none" stroke="#a855f7" stroke-opacity=".55" stroke-dasharray="4 8"/><text class="mono" x="1030" y="237" text-anchor="middle" fill="#e0f2fe" font-size="19" font-weight="800">Docker</text></g><g><circle cx="800" cy="350" r="50" fill="#0f172a" stroke="#38bdf8" stroke-width="2"/><circle cx="800" cy="350" r="42" fill="none" stroke="#a855f7" stroke-opacity=".55" stroke-dasharray="4 8"/><text class="mono" x="800" y="357" text-anchor="middle" fill="#e0f2fe" font-size="19" font-weight="800">Node</text></g><g><circle cx="920" cy="350" r="50" fill="#0f172a" stroke="#38bdf8" stroke-width="2"/><circle cx="920" cy="350" r="42" fill="none" stroke="#a855f7" stroke-opacity=".55" stroke-dasharray="4 8"/><text class="mono" x="920" y="357" text-anchor="middle" fill="#e0f2fe" font-size="19" font-weight="800">React</text></g><g><circle cx="1080" cy="350" r="50" fill="#0f172a" stroke="#38bdf8" stroke-width="2"/><circle cx="1080" cy="350" r="42" fill="none" stroke="#a855f7" stroke-opacity=".55" stroke-dasharray="4 8"/><text class="mono" x="1080" y="357" text-anchor="middle" fill="#e0f2fe" font-size="19" font-weight="800">Bash</text></g><g><circle cx="1000" cy="450" r="42" fill="#0f172a" stroke="#38bdf8" stroke-width="2"/><circle cx="1000" cy="450" r="34" fill="none" stroke="#a855f7" stroke-opacity=".55" stroke-dasharray="4 8"/><text class="mono" x="1000" y="457" text-anchor="middle" fill="#e0f2fe" font-size="19" font-weight="800">42</text></g></g><text class="mono" x="760" y="530" fill="#94a3b8" font-size="17">skills graph / core tools / 42 projects</text>
</svg>