<svg xmlns="http://www.w3.org/2000/svg" width="1200" height="500" viewBox="0 0 1200 500" role="img" aria-labelledby="title desc">
<title id="title">Octopus5W - retro pixel programming banner</title>
<desc id="desc">Retro pixel art programming banner for Octopus5W, with a terminal, pixel octopus, and skill icons.</desc>
<defs><style>.mono{font-family:ui-monospace,SFMono-Regular,Menlo,Monaco,Consolas,"Liberation Mono",monospace}</style><linearGradient id="scan" x1="0" y1="0" x2="0" y2="1"><stop offset="0" stop-color="#111827"/><stop offset="1" stop-color="#030712"/></linearGradient></defs>
<rect width="1200" height="500" fill="#030712"/><rect x="42" y="42" width="1116" height="416" fill="url(#scan)" stroke="#22c55e" stroke-width="3" shape-rendering="crispEdges"/>
<g opacity=".09"><rect x="0" y="0" width="1200" height="2" fill="#a7f3d0"/><rect x="0" y="10" width="1200" height="2" fill="#a7f3d0"/><rect x="0" y="20" width="1200" height="2" fill="#a7f3d0"/><rect x="0" y="30" width="1200" height="2" fill="#a7f3d0"/><rect x="0" y="40" width="1200" height="2" fill="#a7f3d0"/><rect x="0" y="50" width="1200" height="2" fill="#a7f3d0"/><rect x="0" y="60" width="1200" height="2" fill="#a7f3d0"/><rect x="0" y="70" width="1200" height="2" fill="#a7f3d0"/><rect x="0" y="80" width="1200" height="2" fill="#a7f3d0"/><rect x="0" y="90" width="1200" height="2" fill="#a7f3d0"/><rect x="0" y="100" width="1200" height="2" fill="#a7f3d0"/><rect x="0" y="110" width="1200" height="2" fill="#a7f3d0"/><rect x="0" y="120" width="1200" height="2" fill="#a7f3d0"/><rect x="0" y="130" width="1200" height="2" fill="#a7f3d0"/><rect x="0" y="140" width="1200" height="2" fill="#a7f3d0"/><rect x="0" y="150" width="1200" height="2" fill="#a7f3d0"/><rect x="0" y="160" width="1200" height="2" fill="#a7f3d0"/><rect x="0" y="170" width="1200" height="2" fill="#a7f3d0"/><rect x="0" y="180" width="1200" height="2" fill="#a7f3d0"/><rect x="0" y="190" width="1200" height="2" fill="#a7f3d0"/><rect x="0" y="200" width="1200" height="2" fill="#a7f3d0"/><rect x="0" y="210" width="1200" height="2" fill="#a7f3d0"/><rect x="0" y="220" width="1200" height="2" fill="#a7f3d0"/><rect x="0" y="230" width="1200" height="2" fill="#a7f3d0"/><rect x="0" y="240" width="1200" height="2" fill="#a7f3d0"/><rect x="0" y="250" width="1200" height="2" fill="#a7f3d0"/><rect x="0" y="260" width="1200" height="2" fill="#a7f3d0"/><rect x="0" y="270" width="1200" height="2" fill="#a7f3d0"/><rect x="0" y="280" width="1200" height="2" fill="#a7f3d0"/><rect x="0" y="290" width="1200" height="2" fill="#a7f3d0"/><rect x="0" y="300" width="1200" height="2" fill="#a7f3d0"/><rect x="0" y="310" width="1200" height="2" fill="#a7f3d0"/><rect x="0" y="320" width="1200" height="2" fill="#a7f3d0"/><rect x="0" y="330" width="1200" height="2" fill="#a7f3d0"/><rect x="0" y="340" width="1200" height="2" fill="#a7f3d0"/><rect x="0" y="350" width="1200" height="2" fill="#a7f3d0"/><rect x="0" y="360" width="1200" height="2" fill="#a7f3d0"/><rect x="0" y="370" width="1200" height="2" fill="#a7f3d0"/><rect x="0" y="380" width="1200" height="2" fill="#a7f3d0"/><rect x="0" y="390" width="1200" height="2" fill="#a7f3d0"/><rect x="0" y="400" width="1200" height="2" fill="#a7f3d0"/><rect x="0" y="410" width="1200" height="2" fill="#a7f3d0"/><rect x="0" y="420" width="1200" height="2" fill="#a7f3d0"/><rect x="0" y="430" width="1200" height="2" fill="#a7f3d0"/><rect x="0" y="440" width="1200" height="2" fill="#a7f3d0"/><rect x="0" y="450" width="1200" height="2" fill="#a7f3d0"/><rect x="0" y="460" width="1200" height="2" fill="#a7f3d0"/><rect x="0" y="470" width="1200" height="2" fill="#a7f3d0"/><rect x="0" y="480" width="1200" height="2" fill="#a7f3d0"/><rect x="0" y="490" width="1200" height="2" fill="#a7f3d0"/></g>
<text class="mono" x="82" y="96" fill="#22c55e" font-size="24">LOAD PROFILE /home/Octopus5W</text>
<text class="mono" x="82" y="172" fill="#f8fafc" font-size="58" font-weight="900" letter-spacing="-2">&gt; Octopus5W</text><rect x="80" y="198" width="524" height="4" fill="#a855f7" shape-rendering="crispEdges"/>
<g class="mono" font-size="21" fill="#d1fae5"><text x="82" y="252">[01] Étudiant à 42</text><text x="82" y="288">[02] Passionné par la programmation</text><text x="82" y="324">[03] Toujours en train d’apprendre et de construire de nouveaux projets</text></g>
<g class="mono"><g transform="translate(80,352)"><rect x="0" y="0" width="52" height="36" fill="#101827" stroke="#22c55e" stroke-width="3" shape-rendering="crispEdges"/><text class="mono" x="26.0" y="24" text-anchor="middle" fill="#f8fafc" font-size="15" font-weight="800">C</text></g><g transform="translate(144,352)"><rect x="0" y="0" width="52" height="36" fill="#101827" stroke="#38bdf8" stroke-width="3" shape-rendering="crispEdges"/><text class="mono" x="26.0" y="24" text-anchor="middle" fill="#f8fafc" font-size="15" font-weight="800">C++</text></g><g transform="translate(208,352)"><rect x="0" y="0" width="60" height="36" fill="#101827" stroke="#eab308" stroke-width="3" shape-rendering="crispEdges"/><text class="mono" x="30.0" y="24" text-anchor="middle" fill="#f8fafc" font-size="15" font-weight="800">Make</text></g><g transform="translate(280,352)"><rect x="0" y="0" width="60" height="36" fill="#101827" stroke="#a855f7" stroke-width="3" shape-rendering="crispEdges"/><text class="mono" x="30.0" y="24" text-anchor="middle" fill="#f8fafc" font-size="15" font-weight="800">Bash</text></g><g transform="translate(352,352)"><rect x="0" y="0" width="70" height="36" fill="#101827" stroke="#ef4444" stroke-width="3" shape-rendering="crispEdges"/><text class="mono" x="35.0" y="24" text-anchor="middle" fill="#f8fafc" font-size="15" font-weight="800">Linux</text></g><g transform="translate(434,352)"><rect x="0" y="0" width="52" height="36" fill="#101827" stroke="#22c55e" stroke-width="3" shape-rendering="crispEdges"/><text class="mono" x="26.0" y="24" text-anchor="middle" fill="#f8fafc" font-size="15" font-weight="800">Git</text></g><g transform="translate(498,352)"><rect x="0" y="0" width="80" height="36" fill="#101827" stroke="#38bdf8" stroke-width="3" shape-rendering="crispEdges"/><text class="mono" x="40.0" y="24" text-anchor="middle" fill="#f8fafc" font-size="15" font-weight="800">Docker</text></g><g transform="translate(590,352)"><rect x="0" y="0" width="80" height="36" fill="#101827" stroke="#eab308" stroke-width="3" shape-rendering="crispEdges"/><text class="mono" x="40.0" y="24" text-anchor="middle" fill="#f8fafc" font-size="15" font-weight="800">NeoVim</text></g><g transform="translate(80,404)"><rect x="0" y="0" width="52" height="36" fill="#101827" stroke="#a855f7" stroke-width="3" shape-rendering="crispEdges"/><text class="mono" x="26.0" y="24" text-anchor="middle" fill="#f8fafc" font-size="15" font-weight="800">TS</text></g><g transform="translate(144,404)"><rect x="0" y="0" width="52" height="36" fill="#101827" stroke="#ef4444" stroke-width="3" shape-rendering="crispEdges"/><text class="mono" x="26.0" y="24" text-anchor="middle" fill="#f8fafc" font-size="15" font-weight="800">JS</text></g><g transform="translate(208,404)"><rect x="0" y="0" width="70" height="36" fill="#101827" stroke="#22c55e" stroke-width="3" shape-rendering="crispEdges"/><text class="mono" x="35.0" y="24" text-anchor="middle" fill="#f8fafc" font-size="15" font-weight="800">React</text></g><g transform="translate(290,404)"><rect x="0" y="0" width="60" height="36" fill="#101827" stroke="#38bdf8" stroke-width="3" shape-rendering="crispEdges"/><text class="mono" x="30.0" y="24" text-anchor="middle" fill="#f8fafc" font-size="15" font-weight="800">Node</text></g><g transform="translate(362,404)"><rect x="0" y="0" width="52" height="36" fill="#101827" stroke="#eab308" stroke-width="3" shape-rendering="crispEdges"/><text class="mono" x="26.0" y="24" text-anchor="middle" fill="#f8fafc" font-size="15" font-weight="800">42</text></g><g transform="translate(426,404)"><rect x="0" y="0" width="52" height="36" fill="#101827" stroke="#a855f7" stroke-width="3" shape-rendering="crispEdges"/><text class="mono" x="26.0" y="24" text-anchor="middle" fill="#f8fafc" font-size="15" font-weight="800">GDB</text></g></g>
<g transform="translate(870,138)"><rect x="56" y="0" width="14" height="14" fill="#7c3aed" shape-rendering="crispEdges"/><rect x="70" y="0" width="14" height="14" fill="#7c3aed" shape-rendering="crispEdges"/><rect x="84" y="0" width="14" height="14" fill="#a855f7" shape-rendering="crispEdges"/><rect x="98" y="0" width="14" height="14" fill="#7c3aed" shape-rendering="crispEdges"/><rect x="28" y="14" width="14" height="14" fill="#a855f7" shape-rendering="crispEdges"/><rect x="42" y="14" width="14" height="14" fill="#7c3aed" shape-rendering="crispEdges"/><rect x="56" y="14" width="14" height="14" fill="#7c3aed" shape-rendering="crispEdges"/><rect x="70" y="14" width="14" height="14" fill="#a855f7" shape-rendering="crispEdges"/><rect x="84" y="14" width="14" height="14" fill="#7c3aed" shape-rendering="crispEdges"/><rect x="98" y="14" width="14" height="14" fill="#7c3aed" shape-rendering="crispEdges"/><rect x="112" y="14" width="14" height="14" fill="#a855f7" shape-rendering="crispEdges"/><rect x="126" y="14" width="14" height="14" fill="#7c3aed" shape-rendering="crispEdges"/><rect x="14" y="28" width="14" height="14" fill="#a855f7" shape-rendering="crispEdges"/><rect x="28" y="28" width="14" height="14" fill="#7c3aed" shape-rendering="crispEdges"/><rect x="42" y="28" width="14" height="14" fill="#7c3aed" shape-rendering="crispEdges"/><rect x="56" y="28" width="14" height="14" fill="#a855f7" shape-rendering="crispEdges"/><rect x="70" y="28" width="14" height="14" fill="#7c3aed" shape-rendering="crispEdges"/><rect x="84" y="28" width="14" height="14" fill="#7c3aed" shape-rendering="crispEdges"/><rect x="98" y="28" width="14" height="14" fill="#a855f7" shape-rendering="crispEdges"/><rect x="112" y="28" width="14" height="14" fill="#7c3aed" shape-rendering="crispEdges"/><rect x="126" y="28" width="14" height="14" fill="#7c3aed" shape-rendering="crispEdges"/><rect x="140" y="28" width="14" height="14" fill="#a855f7" shape-rendering="crispEdges"/><rect x="14" y="42" width="14" height="14" fill="#7c3aed" shape-rendering="crispEdges"/><rect x="28" y="42" width="14" height="14" fill="#7c3aed" shape-rendering="crispEdges"/><rect x="42" y="42" width="14" height="14" fill="#a855f7" shape-rendering="crispEdges"/><rect x="56" y="42" width="14" height="14" fill="#7c3aed" shape-rendering="crispEdges"/><rect x="70" y="42" width="14" height="14" fill="#7c3aed" shape-rendering="crispEdges"/><rect x="84" y="42" width="14" height="14" fill="#a855f7" shape-rendering="crispEdges"/><rect x="98" y="42" width="14" height="14" fill="#7c3aed" shape-rendering="crispEdges"/><rect x="112" y="42" width="14" height="14" fill="#7c3aed" shape-rendering="crispEdges"/><rect x="126" y="42" width="14" height="14" fill="#a855f7" shape-rendering="crispEdges"/><rect x="140" y="42" width="14" height="14" fill="#7c3aed" shape-rendering="crispEdges"/><rect x="28" y="56" width="14" height="14" fill="#a855f7" shape-rendering="crispEdges"/><rect x="42" y="56" width="14" height="14" fill="#7c3aed" shape-rendering="crispEdges"/><rect x="56" y="56" width="14" height="14" fill="#7c3aed" shape-rendering="crispEdges"/><rect x="70" y="56" width="14" height="14" fill="#a855f7" shape-rendering="crispEdges"/><rect x="84" y="56" width="14" height="14" fill="#7c3aed" shape-rendering="crispEdges"/><rect x="98" y="56" width="14" height="14" fill="#7c3aed" shape-rendering="crispEdges"/><rect x="112" y="56" width="14" height="14" fill="#a855f7" shape-rendering="crispEdges"/><rect x="126" y="56" width="14" height="14" fill="#7c3aed" shape-rendering="crispEdges"/><rect x="0" y="70" width="14" height="14" fill="#7c3aed" shape-rendering="crispEdges"/><rect x="14" y="70" width="14" height="14" fill="#a855f7" shape-rendering="crispEdges"/><rect x="42" y="70" width="14" height="14" fill="#7c3aed" shape-rendering="crispEdges"/><rect x="56" y="70" width="14" height="14" fill="#a855f7" shape-rendering="crispEdges"/><rect x="98" y="70" width="14" height="14" fill="#a855f7" shape-rendering="crispEdges"/><rect x="112" y="70" width="14" height="14" fill="#7c3aed" shape-rendering="crispEdges"/><rect x="140" y="70" width="14" height="14" fill="#a855f7" shape-rendering="crispEdges"/><rect x="154" y="70" width="14" height="14" fill="#7c3aed" shape-rendering="crispEdges"/><rect x="0" y="84" width="14" height="14" fill="#a855f7" shape-rendering="crispEdges"/><rect x="28" y="84" width="14" height="14" fill="#7c3aed" shape-rendering="crispEdges"/><rect x="56" y="84" width="14" height="14" fill="#7c3aed" shape-rendering="crispEdges"/><rect x="70" y="84" width="14" height="14" fill="#7c3aed" shape-rendering="crispEdges"/><rect x="84" y="84" width="14" height="14" fill="#a855f7" shape-rendering="crispEdges"/><rect x="98" y="84" width="14" height="14" fill="#7c3aed" shape-rendering="crispEdges"/><rect x="126" y="84" width="14" height="14" fill="#a855f7" shape-rendering="crispEdges"/><rect x="154" y="84" width="14" height="14" fill="#7c3aed" shape-rendering="crispEdges"/><rect x="14" y="98" width="14" height="14" fill="#7c3aed" shape-rendering="crispEdges"/><rect x="42" y="98" width="14" height="14" fill="#7c3aed" shape-rendering="crispEdges"/><rect x="70" y="98" width="14" height="14" fill="#a855f7" shape-rendering="crispEdges"/><rect x="84" y="98" width="14" height="14" fill="#7c3aed" shape-rendering="crispEdges"/><rect x="112" y="98" width="14" height="14" fill="#a855f7" shape-rendering="crispEdges"/><rect x="140" y="98" width="14" height="14" fill="#7c3aed" shape-rendering="crispEdges"/><rect x="0" y="112" width="14" height="14" fill="#7c3aed" shape-rendering="crispEdges"/><rect x="28" y="112" width="14" height="14" fill="#7c3aed" shape-rendering="crispEdges"/><rect x="56" y="112" width="14" height="14" fill="#a855f7" shape-rendering="crispEdges"/><rect x="98" y="112" width="14" height="14" fill="#a855f7" shape-rendering="crispEdges"/><rect x="126" y="112" width="14" height="14" fill="#7c3aed" shape-rendering="crispEdges"/><rect x="154" y="112" width="14" height="14" fill="#7c3aed" shape-rendering="crispEdges"/></g>
<text class="mono" x="820" y="324" fill="#38bdf8" font-size="21">MULTI-THREAD MINDSET</text>
<rect x="740" y="358" width="352" height="58" fill="#060b16" stroke="#38bdf8" stroke-width="3" shape-rendering="crispEdges"/>
<text class="mono" x="770" y="394" fill="#f8fafc" font-size="22">while (learning) build();</text>
</svg>